<svg height="464pt" viewBox="0 0 464.04099 464" width="464pt" xmlns="http://www.w3.org/2000/svg"><path d="m464.039062 232.019531c.019532 122.136719-94.691406 223.355469-216.558593 231.441407-5.121094.398437-10.238281.558593-15.441407.558593-124.828124.023438-227.296874-98.730469-231.882812-223.476562-4.585938-124.746094 90.355469-230.757813 214.851562-239.898438 124.492188-9.144531 233.90625 81.859375 247.59375 205.9375.960938 8.445313 1.441407 16.9375 1.4375 25.4375zm0 0" fill="#acabb1"/><path d="m464.039062 232.019531c.019532 122.136719-94.691406 223.355469-216.558593 231.441407l-127.441407-127.441407 256-216 86.5625 86.5625c.960938 8.445313 1.441407 16.9375 1.4375 25.4375zm0 0" fill="#818085"/><path d="m384.039062 137.941406v94.078125c0 83.949219-68.050781 152-152 152-83.945312 0-152-68.050781-152-152v-94c.019532-15.144531 10.625-28.21875 25.441407-31.359375l127.199219-26.640625 126 26.640625c14.789062 3.117188 25.371093 16.167969 25.359374 31.28125zm0 0" fill="#ff5023"/><path d="m282.953125 135.851562-50.914063 50.914063-50.910156-50.914063-45.257812 45.257813 50.914062 50.910156-50.914062 50.914063 45.257812 45.253906 50.910156-50.910156 50.914063 50.910156 45.253906-45.253906-50.910156-50.914063 50.910156-50.910156zm0 0" fill="#fff"/></svg>