<svg height="480pt" viewBox="-40 0 480 480" width="480pt" xmlns="http://www.w3.org/2000/svg"><path d="m104 8h192c44.183594 0 80 35.816406 80 80v264h-352v-264c0-44.183594 35.816406-80 80-80zm0 0" fill="#f98c96"/><path d="m8 352h384v72c0 26.507812-21.492188 48-48 48h-288c-26.507812 0-48-21.492188-48-48zm0 0" fill="#b11e48"/><path d="m128 352h144v32c0 8.835938-7.164062 16-16 16h-112c-8.835938 0-16-7.164062-16-16zm0 0" fill="#f98c96"/><path d="m144 64c-13.253906 0-24-10.746094-24-24 0-4.417969-3.582031-8-8-8s-8 3.582031-8 8c0 13.253906-10.746094 24-24 24-4.417969 0-8 3.582031-8 8s3.582031 8 8 8c13.253906 0 24 10.746094 24 24 0 4.417969 3.582031 8 8 8s8-3.582031 8-8c0-13.253906 10.746094-24 24-24 4.417969 0 8-3.582031 8-8s-3.582031-8-8-8zm-32 16.246094c-2.332031-3.136719-5.109375-5.914063-8.246094-8.246094 3.136719-2.332031 5.914063-5.109375 8.246094-8.246094 2.332031 3.136719 5.109375 5.914063 8.246094 8.246094-3.136719 2.332031-5.914063 5.109375-8.246094 8.246094zm0 0" fill="#ffd782"/><path d="m256 448h-200c-4.417969 0-8-3.582031-8-8s3.582031-8 8-8h200c4.417969 0 8 3.582031 8 8s-3.582031 8-8 8zm0 0" fill="#f98c96"/><path d="m304 448h-16c-4.417969 0-8-3.582031-8-8s3.582031-8 8-8h16c4.417969 0 8 3.582031 8 8s-3.582031 8-8 8zm0 0" fill="#f98c96"/><path d="m248 96-16-16h-64l-16 16 24 56v18h47.984375v-18h.015625zm0 0" fill="#2d75bb"/><path d="m232 128h-64c-4.417969 0-8-3.582031-8-8s3.582031-8 8-8h64c4.417969 0 8 3.582031 8 8s-3.582031 8-8 8zm0 0" fill="#cfdfe8"/><path d="m200 152c-53.019531 0-96 42.980469-96 96s42.980469 96 96 96 96-42.980469 96-96-42.980469-96-96-96zm0 160c-35.347656 0-64-28.652344-64-64s28.652344-64 64-64 64 28.652344 64 64-28.652344 64-64 64zm0 0" fill="#cfdfe8"/><path d="m112 304h176c26.507812 0 48 21.492188 48 48h-272c0-26.507812 21.492188-48 48-48zm0 0" fill="#dd3e46"/><path d="m296 0h-192c-48.578125.0585938-87.941406 39.421875-88 88v256h-8c-4.417969 0-8 3.582031-8 8v72c.0390625 30.910156 25.089844 55.960938 56 56h288c30.910156-.039062 55.960938-25.089844 56-56v-72c0-4.417969-3.582031-8-8-8h-8v-256c-.058594-48.578125-39.421875-87.9414062-88-88zm-264 88c.042969-39.746094 32.253906-71.957031 72-72h192c39.746094.042969 71.957031 32.253906 72 72v256h-24.640625c-3.773437-25.980469-25.089844-45.847656-51.269531-47.792969 14.109375-26.847656 15.765625-58.523437 4.535156-86.699219-11.230469-28.175781-34.226562-50.027343-62.9375-59.804687l21.671875-50.550781c1.285156-3.003906.613281-6.488282-1.695313-8.800782l-16-16c-1.5-1.503906-3.539062-2.351562-5.664062-2.351562h-64c-2.121094 0-4.15625.84375-5.65625 2.34375l-16 16c-2.308594 2.3125-2.980469 5.796875-1.695312 8.800781l21.671874 50.550781c-28.703124 9.792969-51.691406 31.640626-62.929687 59.804688-11.234375 28.167969-9.597656 59.839844 4.480469 86.699219-26.167969 1.964843-47.460938 21.832031-51.230469 47.800781h-24.640625zm40.800781 256c3.824219-18.613281 20.199219-31.980469 39.199219-32h176c19 .019531 35.375 13.386719 39.199219 32zm191.199219 16v24c0 4.417969-3.582031 8-8 8h-112c-4.417969 0-8-3.582031-8-8v-24zm-96-248c-.144531 0-.265625.070312-.40625.078125l-6.105469-14.246094 9.824219-9.832031h57.375l9.824219 9.832031-6.105469 14.246094c-.140625 0-.261719-.078125-.40625-.078125zm57.601562 16-6.859374 16h-37.46875l-6.875-16zm-25.601562 32c32.285156-.015625 61.980469 17.660156 77.367188 46.042969 15.386718 28.382812 13.984374 62.914062-3.648438 89.957031h-20.277344c26-28.808594 24.492188-73.042969-3.414062-100.015625-27.90625-26.96875-72.164063-26.96875-100.070313 0-27.90625 26.972656-29.417969 71.207031-3.414062 100.015625h-20.238281c-17.652344-27.035156-19.070313-61.574219-3.683594-89.964844 15.382812-28.386718 45.089844-46.0625 77.378906-46.035156zm28.734375 136h-57.414063c-21.632812-12.914062-31.976562-38.683594-25.277343-62.972656 6.699219-24.285156 28.792969-41.109375 53.984375-41.109375 25.195312 0 47.285156 16.824219 53.984375 41.109375 6.699219 24.289062-3.644531 50.058594-25.277344 62.972656zm155.265625 128c-.027344 22.082031-17.917969 39.972656-40 40h-288c-22.082031-.027344-39.972656-17.917969-40-40v-64h104v24c0 13.253906 10.746094 24 24 24h112c13.253906 0 24-10.746094 24-24v-24h104zm0 0"/><path d="m80 80c13.253906 0 24 10.746094 24 24 0 4.417969 3.582031 8 8 8s8-3.582031 8-8c0-13.253906 10.746094-24 24-24 4.417969 0 8-3.582031 8-8s-3.582031-8-8-8c-13.253906 0-24-10.746094-24-24 0-4.417969-3.582031-8-8-8s-8 3.582031-8 8c0 13.253906-10.746094 24-24 24-4.417969 0-8 3.582031-8 8s3.582031 8 8 8zm32-16.246094c2.332031 3.136719 5.109375 5.914063 8.246094 8.246094-3.136719 2.332031-5.914063 5.109375-8.246094 8.246094-2.332031-3.136719-5.109375-5.914063-8.246094-8.246094 3.136719-2.332031 5.914063-5.109375 8.246094-8.246094zm0 0"/><path d="m256 432h-200c-4.417969 0-8 3.582031-8 8s3.582031 8 8 8h200c4.417969 0 8-3.582031 8-8s-3.582031-8-8-8zm0 0"/><path d="m304 432h-16c-4.417969 0-8 3.582031-8 8s3.582031 8 8 8h16c4.417969 0 8-3.582031 8-8s-3.582031-8-8-8zm0 0"/></svg>