<svg height="464pt" viewBox="0 0 464 464.04249" width="464pt" xmlns="http://www.w3.org/2000/svg"><path d="m464.019531 232.042969c0 128.128906-103.867187 232-232 232-5.597656 0-11.117187-.160157-16.636719-.640625-125.648437-9.035156-221.128906-116.6875-215.09375-242.515625 6.03125-125.828125 111.375-223.847657 237.3125-220.8203128 125.933594 3.0312498 226.441407 106.0039058 226.417969 231.9765628zm0 0" fill="#3d9ae2"/><path d="m464.019531 232.042969c0 128.128906-103.867187 232-232 232-5.597656 0-11.117187-.160157-16.636719-.640625l-95.363281-95.359375 216-264zm0 0" fill="#286595"/><path d="m344.019531 179.5625v188.480469h-224v-188.480469l112-43.519531zm0 0" fill="#d1d3d4"/><path d="m360.019531 161.800781-25.101562-9.757812h1.101562v-48h-32v35.992187l-72-27.992187-128 49.757812-16 6.242188v24l16-6.242188 16-6.222656 112-43.535156 112 43.535156 16 6.222656 16 6.242188v-24zm0 0" fill="#ff5023"/><path d="m200.019531 296.042969h64v72h-64zm0 0" fill="#6d6e71"/><g fill="#00d7df"><path d="m160.019531 200.042969h32v48h-32zm0 0"/><path d="m272.019531 200.042969h32v48h-32zm0 0"/></g></svg>