<svg height="463pt" viewBox="0 0 463 463.99588" width="463pt" xmlns="http://www.w3.org/2000/svg"><path d="m464.402344 231.996094c0 5.199218-.160156 10.320312-.558594 15.441406-.160156 2.078125-.320312 4.238281-.5625 6.320312-10.925781 117.078126-107.800781 207.417969-225.359375 210.15625-1.839844.082032-3.679687.082032-5.519531.082032-2.800782 0-5.519532-.082032-8.242188-.238282-126.949218-4.539062-226.628906-110.351562-223.597656-237.347656 3.035156-126.992187 107.65625-227.921875 234.679688-226.394531 127.023437 1.53125 229.183593 104.949219 229.160156 231.980469zm0 0" fill="#006468"/><path d="m463.28125 253.757812c-10.925781 117.078126-107.800781 207.417969-225.359375 210.15625-49.121094-46.476562-149.519531-143.917968-149.519531-143.917968v-176h272zm0 0" fill="#004b4e"/><path d="m184.402344 127.996094h160c8.835937 0 16 7.164062 16 16v16c0 8.835937-7.164063 16-16 16h-160c-8.835938 0-16-7.164063-16-16v-16c0-8.835938 7.164062-16 16-16zm0 0" fill="#cd2a00"/><path d="m184.402344 207.996094h160c8.835937 0 16 7.164062 16 16v16c0 8.835937-7.164063 16-16 16h-160c-8.835938 0-16-7.164063-16-16v-16c0-8.835938 7.164062-16 16-16zm0 0" fill="#ff6243"/><path d="m184.402344 287.996094h160c8.835937 0 16 7.164062 16 16v16c0 8.835937-7.164063 16-16 16h-160c-8.835938 0-16-7.164063-16-16v-16c0-8.835938 7.164062-16 16-16zm0 0" fill="#ff6243"/><path d="m104.402344 127.996094h16c8.835937 0 16 7.164062 16 16v16c0 8.835937-7.164063 16-16 16h-16c-8.835938 0-16-7.164063-16-16v-16c0-8.835938 7.164062-16 16-16zm0 0" fill="#ab2300"/><g fill="#ff6243"><path d="m104.402344 207.996094h16c8.835937 0 16 7.164062 16 16v16c0 8.835937-7.164063 16-16 16h-16c-8.835938 0-16-7.164063-16-16v-16c0-8.835938 7.164062-16 16-16zm0 0"/><path d="m104.402344 287.996094h16c8.835937 0 16 7.164062 16 16v16c0 8.835937-7.164063 16-16 16h-16c-8.835938 0-16-7.164063-16-16v-16c0-8.835938 7.164062-16 16-16zm0 0"/></g></svg>