<?xml version="1.0" encoding="iso-8859-1"?>
<!-- Generator: Adobe Illustrator 19.0.0, SVG Export Plug-In . SVG Version: 6.00 Build 0)  -->
<svg version="1.1" id="Layer_1" xmlns="http://www.w3.org/2000/svg" xmlns:xlink="http://www.w3.org/1999/xlink" x="0px" y="0px"
	 viewBox="0 0 480 480" style="enable-background:new 0 0 480 480;" xml:space="preserve">
<path style="fill:#EFA022;" d="M416,224c0,30.624-17.32,57.256-42.656,70.696c-0.04,0.024-0.064,0.064-0.112,0.088
	c-0.344,0.184-0.712,0.304-1.056,0.48c-2.256,1.144-4.56,2.192-6.928,3.128c-0.712,0.28-1.432,0.528-2.152,0.792
	c-2.168,0.784-4.368,1.472-6.616,2.064c-0.76,0.2-1.512,0.408-2.28,0.584c-2.28,0.536-4.608,0.952-6.96,1.28
	c-0.712,0.104-1.408,0.24-2.12,0.328c-3,0.344-6.032,0.56-9.12,0.56h-88c-4.424,0-8-3.584-8-8v-20.688L171.312,344L240,412.688V392
	c0-4.416,3.576-8,8-8h80c4.064,0,8.072-0.24,12.048-0.608c2.392-0.232,4.776-0.624,7.16-0.992c1.424-0.216,2.856-0.392,4.264-0.656
	c3.152-0.6,6.28-1.344,9.4-2.184c0.536-0.144,1.088-0.272,1.624-0.416c3.376-0.96,6.728-2.064,10.056-3.304
	C421.2,357.688,456,310.896,456,256v-24c0-67.888-53.136-123.608-120-127.752V136v8C380.112,144,416,179.888,416,224z"/>
<g>
	<path style="fill:#95D8C6;" d="M213.376,199.096c2.536,1.392,5.144,2.616,7.824,3.68c0.2,0.08,0.4,0.144,0.6,0.216
		c16.688,6.416,35.72,6.416,52.4,0c0.192-0.08,0.4-0.136,0.592-0.216c2.68-1.056,5.296-2.288,7.824-3.68
		C304.88,186.832,320,163.16,320,136V96v-8c0-39.696-32.296-72-72-72h-72v120C176,163.16,191.12,186.832,213.376,199.096z M272,80
		c13.232,0,24,10.768,24,24h-16c0-4.408-3.584-8-8-8s-8,3.592-8,8h-16C248,90.768,258.768,80,272,80z M248,168
		c17.648,0,32-14.352,32-32h16c0,26.472-21.528,48-48,48V168z M216,80c13.232,0,24,10.768,24,24h-16c0-4.408-3.584-8-8-8
		s-8,3.592-8,8h-16C192,90.768,202.768,80,216,80z"/>
	<path style="fill:#95D8C6;" d="M128,464h240v-69.768c-0.072,0.016-0.136,0.032-0.208,0.056c-4.896,1.408-9.896,2.536-14.992,3.424
		c-2.504,0.448-5.016,0.84-7.536,1.152c-1.52,0.184-3.048,0.36-4.584,0.496c-4.216,0.376-8.44,0.64-12.68,0.64h-72v32
		c0,3.232-1.944,6.152-4.936,7.392c-0.904,0.376-1.84,0.52-2.776,0.552c-0.104,0-0.192,0.056-0.288,0.056
		c-0.168,0-0.32-0.088-0.48-0.096c-0.712-0.048-1.392-0.176-2.072-0.408c-0.248-0.088-0.488-0.152-0.736-0.264
		c-0.864-0.392-1.68-0.888-2.376-1.576l-88-88c-3.128-3.128-3.128-8.184,0-11.312l88-88c2.288-2.296,5.72-2.968,8.72-1.736
		c3,1.24,4.944,4.16,4.944,7.392v32h80c2.136,0,4.248-0.112,6.336-0.32c0.584-0.056,1.16-0.176,1.736-0.248
		c1.488-0.192,2.976-0.392,4.432-0.68c0.76-0.152,1.504-0.36,2.256-0.544c1.224-0.288,2.448-0.576,3.648-0.944
		c0.968-0.296,1.92-0.648,2.88-0.992c0.72-0.256,1.448-0.512,2.152-0.792c-12.856-32.152-39.224-57.424-72.024-68.832
		c-0.568,0.288-1.176,0.48-1.752,0.752c-2.136,1.016-4.312,1.952-6.536,2.8c-0.672,0.248-1.336,0.504-2.008,0.736
		C267.992,222.16,258.216,224,248,224c-10.232,0-20.016-1.848-29.16-5.072c-0.648-0.224-1.288-0.472-1.936-0.712
		c-2.248-0.856-4.44-1.792-6.592-2.816c-0.568-0.272-1.176-0.464-1.744-0.744C160.24,231.424,128,276.56,128,328V464z"/>
</g>
<path style="fill:#EFD01B;" d="M64,75.184C68.728,67.336,75.336,60.728,83.176,56C75.336,51.272,68.728,44.664,64,36.816
	C59.272,44.664,52.664,51.272,44.816,56C52.664,60.728,59.272,67.336,64,75.184z"/>
<path d="M336,88.408V88c0-48.52-39.48-88-88-88h-80c-4.424,0-8,3.584-8,8v128c0,27.392,12.584,51.888,32.264,68.04
	C143.712,225.76,112,273.736,112,328v144c0,4.416,3.576,8,8,8h256c4.424,0,8-3.584,8-8v-83.336c51.664-21.888,88-73.112,88-132.664
	v-24C472,155.296,411.672,92.592,336,88.408z M336,160c35.288,0,64,28.712,64,64c0,21.336-10.536,40.216-26.64,51.856
	c-13.296-31.896-38.192-57.704-69.584-71.856c13.672-11.24,23.84-26.528,28.808-44L336,160L336,160z M176,136V16h72
	c39.704,0,72,32.304,72,72v8v40c0,27.16-15.12,50.832-37.376,63.096c-2.536,1.392-5.152,2.616-7.824,3.68
	c-0.192,0.08-0.4,0.144-0.592,0.216c-16.688,6.416-35.72,6.416-52.4,0c-0.2-0.08-0.4-0.136-0.6-0.216
	c-2.68-1.056-5.288-2.288-7.824-3.68C191.12,186.832,176,163.16,176,136z M368,394.232V464H128V328
	c0-51.44,32.24-96.576,80.568-113.344c0.568,0.28,1.168,0.472,1.744,0.744c2.152,1.024,4.344,1.968,6.592,2.816
	c0.648,0.24,1.288,0.488,1.936,0.712C227.984,222.152,237.768,224,248,224c10.216,0,19.992-1.84,29.12-5.056
	c0.672-0.232,1.336-0.488,2.008-0.736c2.224-0.848,4.4-1.776,6.536-2.8c0.576-0.272,1.184-0.464,1.752-0.752
	c32.8,11.408,59.16,36.68,72.024,68.832c-0.712,0.28-1.432,0.536-2.152,0.792c-0.96,0.344-1.912,0.696-2.88,0.992
	c-1.2,0.36-2.424,0.648-3.648,0.944c-0.752,0.176-1.496,0.392-2.256,0.544c-1.456,0.288-2.944,0.488-4.432,0.68
	c-0.584,0.072-1.152,0.192-1.736,0.248c-2.088,0.2-4.2,0.312-6.336,0.312h-80v-32c0-3.232-1.944-6.152-4.936-7.392
	c-3-1.232-6.432-0.56-8.72,1.736l-88,88c-3.128,3.128-3.128,8.184,0,11.312l88,88c0.696,0.696,1.512,1.192,2.376,1.576
	c0.24,0.112,0.48,0.176,0.736,0.264c0.672,0.232,1.36,0.368,2.072,0.408C247.68,439.912,247.832,440,248,440
	c0.096,0,0.184-0.056,0.28-0.056c0.936-0.032,1.88-0.176,2.776-0.552c3-1.24,4.944-4.16,4.944-7.392v-32h72
	c4.24,0,8.464-0.264,12.688-0.64c1.536-0.136,3.056-0.312,4.584-0.496c2.52-0.312,5.032-0.704,7.536-1.152
	c5.096-0.888,10.096-2.016,14.992-3.424C367.864,394.264,367.928,394.248,368,394.232z M456,256
	c0,54.896-34.8,101.688-83.448,119.84c-3.328,1.24-6.68,2.344-10.056,3.304c-0.536,0.152-1.08,0.272-1.624,0.416
	c-3.12,0.84-6.256,1.584-9.4,2.184c-1.408,0.264-2.84,0.44-4.264,0.656c-2.384,0.368-4.768,0.76-7.16,0.992
	C336.072,383.76,332.064,384,328,384h-80c-4.424,0-8,3.584-8,8v20.688L171.312,344L240,275.312V296c0,4.416,3.576,8,8,8h88
	c3.088,0,6.12-0.216,9.12-0.56c0.712-0.08,1.408-0.224,2.12-0.328c2.352-0.336,4.672-0.752,6.96-1.28
	c0.768-0.176,1.52-0.384,2.28-0.584c2.248-0.6,4.448-1.288,6.616-2.064c0.72-0.264,1.44-0.512,2.152-0.792
	c2.368-0.936,4.68-1.976,6.928-3.128c0.344-0.176,0.72-0.296,1.056-0.48c0.04-0.024,0.064-0.064,0.112-0.088
	C398.68,281.256,416,254.624,416,224c0-44.112-35.888-80-80-80v-8v-31.752c66.864,4.144,120,59.864,120,127.752V256z"/>
<path d="M296,136h-16c0,17.648-14.352,32-32,32v16C274.472,184,296,162.472,296,136z"/>
<path d="M216,96c4.416,0,8,3.592,8,8h16c0-13.232-10.768-24-24-24s-24,10.768-24,24h16C208,99.592,211.584,96,216,96z"/>
<path d="M272,96c4.416,0,8,3.592,8,8h16c0-13.232-10.768-24-24-24s-24,10.768-24,24h16C264,99.592,267.584,96,272,96z"/>
<path d="M120,56c0-4.416-3.576-8-8-8C89.944,48,72,30.056,72,8c0-4.416-3.576-8-8-8s-8,3.584-8,8c0,22.056-17.944,40-40,40
	c-4.424,0-8,3.584-8,8s3.576,8,8,8c22.056,0,40,17.944,40,40c0,4.416,3.576,8,8,8c4.424,0,8-3.584,8-8c0-22.056,17.944-40,40-40
	C116.424,64,120,60.416,120,56z M64,75.184C59.272,67.336,52.664,60.728,44.816,56C52.664,51.272,59.272,44.664,64,36.816
	C68.728,44.664,75.336,51.272,83.176,56C75.336,60.728,68.728,67.336,64,75.184z"/>
<g>
</g>
<g>
</g>
<g>
</g>
<g>
</g>
<g>
</g>
<g>
</g>
<g>
</g>
<g>
</g>
<g>
</g>
<g>
</g>
<g>
</g>
<g>
</g>
<g>
</g>
<g>
</g>
<g>
</g>
</svg>
