<?xml version="1.0" encoding="iso-8859-1"?>
<!-- Generator: Adobe Illustrator 19.0.0, SVG Export Plug-In . SVG Version: 6.00 Build 0)  -->
<svg xmlns="http://www.w3.org/2000/svg" xmlns:xlink="http://www.w3.org/1999/xlink" version="1.1" id="Layer_1" x="0px" y="0px" viewBox="0 0 511.329 511.329" style="enable-background:new 0 0 511.329 511.329;" xml:space="preserve" width="512" height="512">
<g>
	<g>
		<path style="fill:#8EA0A5;" d="M72.991,469.958H0l0-246.971c0-19.261,15.614-34.876,34.876-34.876h3.24    c19.261,0,34.876,15.614,34.876,34.876V469.958z"/>
	</g>
	<path style="fill:#965028;" d="M143.463,496.657H0v-43.03h123.545c16.855,0,30.519,13.664,30.519,30.519v1.91   C154.064,491.91,149.318,496.657,143.463,496.657z"/>
	<path style="fill:#C8E6EB;" d="M492.039,82.81c-0.184-21.705-17.829-39.245-39.578-39.245c-3.318,0-6.539,0.414-9.619,1.183   c-8.832-17.819-27.197-30.076-48.432-30.076c-25.681,0-47.162,17.922-52.657,41.937c-5.002-2.729-10.737-4.281-16.836-4.281   c-19.443,0-35.205,15.762-35.205,35.205c0,19.443,15.762,35.205,35.205,35.205c12.788,0,23.982-6.819,30.148-17.019   c9.855,10.471,23.831,17.019,39.345,17.019c11.781,0,22.673-3.782,31.552-10.182c7.017,6.328,16.307,10.182,26.5,10.182   c8.692,0,16.724-2.809,23.254-7.558c3.661,4.6,9.297,7.558,15.633,7.558c11.035,0,19.981-8.946,19.981-19.981   C511.329,91.955,502.752,83.178,492.039,82.81z"/>
	<g>
		<g>
			<path style="fill:#272A2E;" d="M314.703,488.514l-67.344-77.182c-12.306-14.104-4.171-36.286,14.329-39.096l109.211-16.59     c12.971-1.967,25.078,6.946,27.048,19.914c1.97,12.969-6.946,25.079-19.914,27.048l-66.439,10.092l38.9,44.584     c8.624,9.884,7.602,24.887-2.281,33.511C338.31,499.438,323.309,498.377,314.703,488.514z"/>
		</g>
		<g>
			<path style="fill:#32363B;" d="M396.578,495.49l-118.637-38.511c-22.367-7.26-21.624-39.348,1.118-45.514l113.966-30.896     c12.664-3.433,25.706,4.049,29.138,16.709c3.432,12.66-4.049,25.706-16.709,29.138L368.5,436.435l42.743,13.875     c12.477,4.05,19.307,17.447,15.257,29.923C422.452,492.707,409.053,499.541,396.578,495.49z"/>
		</g>
		<g>
			<path style="fill:#32363B;" d="M275.909,331.253c-2.563,0-5.133-0.518-7.55-1.565l-50.579-21.904     c-9.629-4.171-14.055-15.357-9.885-24.987c4.17-9.63,15.357-14.056,24.987-9.885l41.634,18.03l61.778-36.974     c9.004-5.388,20.672-2.459,26.062,6.546c5.389,9.004,2.458,20.673-6.546,26.062l-70.142,41.979     C282.677,330.345,279.3,331.253,275.909,331.253z"/>
		</g>
		<g>
			<path style="fill:#FFB69E;" d="M217.781,307.784l18.147,7.859c0.027-0.027,0.08-0.079,0.08-0.079l10.844-36.601l-13.97-6.05     c-9.63-4.171-20.817,0.255-24.987,9.885C203.726,292.427,208.151,303.614,217.781,307.784z"/>
		</g>
		<path style="fill:#373C41;" d="M364.781,411.277l57.954-11.227l-16.577-120.587c-3.844-27.171-28.986-46.082-56.158-42.238    l-19.526,2.762c-21.754,3.077-36.894,23.207-33.817,44.962l12.233,86.474C312.686,398.252,338.18,416.431,364.781,411.277z"/>
		<circle style="fill:#FFB69E;" cx="304.252" cy="205.27" r="42.724"/>
		<g>
			<path style="fill:#64822D;" d="M225.331,387.422c-3.756,0-6.802-3.045-6.802-6.802V277.075c0-3.756,3.045-6.802,6.802-6.802     c3.756,0,6.802,3.045,6.802,6.802v103.546C232.133,384.377,229.088,387.422,225.331,387.422z"/>
		</g>
		<g>
			<path style="fill:#50555A;" d="M296.375,357.693l-81.8-7.737c-10.447-0.988-18.115-10.258-17.127-20.705     c0.988-10.448,10.264-18.116,20.705-17.127l70.78,6.695l41.545-59.432c6.013-8.6,17.858-10.698,26.459-4.687     c8.601,6.013,10.699,17.858,4.687,26.459l-47.887,68.504C309.751,355.367,303.061,358.33,296.375,357.693z"/>
		</g>
		<g>
			<path style="fill:#FFB69E;" d="M235.271,313.743l-17.118-1.619c-10.441-0.989-19.717,6.679-20.705,17.127     c-0.988,10.447,6.68,19.717,17.127,20.705l15.817,1.496L235.271,313.743z"/>
		</g>
		<path style="fill:#FA503C;" d="M225.332,286.247L225.332,286.247c-12.329,0-22.324-9.995-22.324-22.324v-24.276    c0-2.4,2.74-3.77,4.66-2.33l15.917,11.937c1.036,0.777,2.46,0.777,3.495,0l15.917-11.937c1.92-1.44,4.66-0.07,4.66,2.33v24.276    C247.656,276.252,237.661,286.247,225.332,286.247z"/>
	</g>
</g>















</svg>
